<svg width="40" height="40" viewBox="0 0 40 40" fill="none" xmlns="http://www.w3.org/2000/svg">
<g id="file-attachment">
<path id="Icon (Stroke)" fill-rule="evenodd" clip-rule="evenodd" d="M14.613 2.08337H25.3867C26.7414 2.08336 27.8341 2.08335 28.719 2.15565C29.63 2.23008 30.4302 2.38735 31.1706 2.76458C32.3466 3.36379 33.3028 4.31992 33.902 5.49594C34.2792 6.2363 34.4365 7.03653 34.5109 7.94759C34.5832 8.83244 34.5832 9.92512 34.5832 11.2798V11.6667C34.5832 12.3571 34.0235 12.9167 33.3332 12.9167C32.6428 12.9167 32.0832 12.3571 32.0832 11.6667V11.3334C32.0832 9.91262 32.0822 8.92223 32.0192 8.15118C31.9574 7.39472 31.8422 6.96011 31.6744 6.63091C31.3149 5.9253 30.7412 5.35163 30.0356 4.9921C29.7064 4.82437 29.2718 4.70915 28.5154 4.64734C27.7443 4.58435 26.7539 4.58337 25.3332 4.58337H14.6665C13.2457 4.58337 12.2554 4.58435 11.4843 4.64734C10.7278 4.70915 10.2932 4.82437 9.96404 4.9921C9.25843 5.35163 8.68476 5.9253 8.32523 6.63091C8.1575 6.9601 8.04228 7.39472 7.98047 8.15117C7.91748 8.92223 7.9165 9.91262 7.9165 11.3334V28.6667C7.9165 30.0875 7.91748 31.0779 7.98047 31.8489C8.04228 32.6054 8.1575 33.04 8.32523 33.3692C8.68475 34.0748 9.25843 34.6485 9.96404 35.008C10.2932 35.1757 10.7278 35.2909 11.4843 35.3527C12.2554 35.4157 13.2457 35.4167 14.6665 35.4167H20.8332C21.5235 35.4167 22.0832 35.9764 22.0832 36.6667C22.0832 37.3571 21.5235 37.9167 20.8332 37.9167H14.613C13.2582 37.9167 12.1656 37.9167 11.2807 37.8444C10.3697 37.77 9.56943 37.6127 8.82906 37.2355C7.65305 36.6363 6.69692 35.6802 6.09771 34.5041C5.72048 33.7638 5.56321 32.9635 5.48878 32.0525C5.41648 31.1676 5.41649 30.075 5.4165 28.7202V11.2799C5.41649 9.92513 5.41648 8.83244 5.48878 7.94759C5.56321 7.03653 5.72048 6.2363 6.09771 5.49593C6.69692 4.31992 7.65305 3.36379 8.82906 2.76458C9.56943 2.38735 10.3697 2.23008 11.2807 2.15565C12.1656 2.08335 13.2583 2.08336 14.613 2.08337ZM12.0832 11.6667C12.0832 10.9764 12.6428 10.4167 13.3332 10.4167H26.6665C27.3569 10.4167 27.9165 10.9764 27.9165 11.6667C27.9165 12.3571 27.3569 12.9167 26.6665 12.9167H13.3332C12.6428 12.9167 12.0832 12.3571 12.0832 11.6667ZM28.3333 17.9167C26.9526 17.9167 25.8333 19.036 25.8333 20.4167C25.8333 21.7974 26.9526 22.9167 28.3333 22.9167C29.714 22.9167 30.8333 21.7974 30.8333 20.4167C30.8333 19.036 29.714 17.9167 28.3333 17.9167ZM23.3333 20.4167C23.3333 17.6553 25.5718 15.4167 28.3333 15.4167C31.0947 15.4167 33.3333 17.6553 33.3333 20.4167C33.3333 23.1781 31.0947 25.4167 28.3333 25.4167C25.5718 25.4167 23.3333 23.1781 23.3333 20.4167ZM12.0832 18.3334C12.0832 17.643 12.6428 17.0834 13.3332 17.0834H18.3332C19.0235 17.0834 19.5832 17.643 19.5832 18.3334C19.5832 19.0237 19.0235 19.5834 18.3332 19.5834H13.3332C12.6428 19.5834 12.0832 19.0237 12.0832 18.3334ZM12.0832 25C12.0832 24.3097 12.6428 23.75 13.3332 23.75H15.8332C16.5235 23.75 17.0832 24.3097 17.0832 25C17.0832 25.6904 16.5235 26.25 15.8332 26.25H13.3332C12.6428 26.25 12.0832 25.6904 12.0832 25ZM26.0667 27.4999C26.1269 27.5 26.188 27.5 26.2499 27.5H30.4166C30.4785 27.5 30.5396 27.5 30.5999 27.4999C31.5822 27.4992 32.3419 27.4987 32.9971 27.6974C34.4619 28.1418 35.6082 29.2881 36.0526 30.7529C36.253 31.4135 35.8799 32.1115 35.2193 32.3119C34.5586 32.5123 33.8606 32.1392 33.6602 31.4786C33.4583 30.8128 32.9372 30.2917 32.2714 30.0897C32.0204 30.0136 31.6705 30 30.4166 30H26.2499C24.996 30 24.6462 30.0136 24.3952 30.0897C23.7293 30.2917 23.2083 30.8128 23.0063 31.4786C22.8059 32.1392 22.1079 32.5123 21.4473 32.3119C20.7867 32.1115 20.4136 31.4135 20.614 30.7529C21.0583 29.2881 22.2046 28.1418 23.6695 27.6974C24.3246 27.4987 25.0844 27.4992 26.0667 27.4999Z" fill="url(#paint0_linear_5151_211)"/>
</g>
<defs>
<linearGradient id="paint0_linear_5151_211" x1="20.7616" y1="2.08337" x2="20.7616" y2="37.9167" gradientUnits="userSpaceOnUse">
<stop stop-color="#059AE0"/>
<stop offset="1" stop-color="#00AEFF" stop-opacity="0.3"/>
</linearGradient>
</defs>
</svg>
