<svg width="30" height="36" viewBox="0 0 30 36" fill="none" xmlns="http://www.w3.org/2000/svg">
<g id="Group 59409">
<g id="Icon (Stroke)">
<path fill-rule="evenodd" clip-rule="evenodd" d="M9.613 0.0832523H20.3867C21.7414 0.0832398 22.8341 0.0832298 23.7189 0.155525C24.63 0.229962 25.4302 0.387227 26.1706 0.764462C27.3466 1.36367 28.3028 2.3198 28.902 3.49581C29.2792 4.23618 29.4365 5.03641 29.5109 5.94747C29.5832 6.83231 29.5832 14.175 29.5832 15.5297V15.9166C29.5832 16.6069 29.0235 17.1666 28.3332 17.1666C27.6428 17.1666 27.0832 16.6069 27.0832 15.9166V15.5833C27.0832 14.1625 27.0822 6.9221 27.0192 6.15105C26.9574 5.39459 26.8422 4.95998 26.6744 4.63079C26.3149 3.92518 25.7412 3.3515 25.0356 2.99198C24.7064 2.82425 24.2718 2.70903 23.5154 2.64722C22.7443 2.58422 21.7539 2.58325 20.3332 2.58325H9.6665C8.24575 2.58325 7.25536 2.58422 6.4843 2.64722C5.72784 2.70903 5.29323 2.82425 4.96404 2.99198C4.25843 3.3515 3.68476 3.92518 3.32523 4.63079C3.1575 4.95998 3.04228 5.39459 2.98047 6.15105C2.91748 6.9221 2.9165 7.9125 2.9165 9.33325V26.6666C2.9165 28.0873 2.91748 29.0777 2.98047 29.8488C3.04228 30.6052 3.1575 31.0399 3.32523 31.3691C3.68476 32.0747 4.25843 32.6483 4.96404 33.0079C5.29323 33.1756 5.72785 33.2908 6.4843 33.3526C7.25536 33.4156 8.24575 33.4166 9.6665 33.4166H22.0832C22.7735 33.4166 23.3332 33.9762 23.3332 34.6666C23.3332 35.3569 22.7735 35.9166 22.0832 35.9166H9.61309C8.25832 35.9166 7.16559 35.9166 6.28072 35.8443C5.36966 35.7699 4.56943 35.6126 3.82906 35.2354C2.65305 34.6362 1.69692 33.68 1.09771 32.504C0.720479 31.7637 0.563213 30.9634 0.488777 30.0524C0.416482 29.1675 0.416492 28.0748 0.416504 26.7201V9.27975C0.416492 7.92501 0.416482 6.83232 0.488777 5.94747C0.563213 5.03641 0.720479 4.23618 1.09771 3.49581C1.69692 2.3198 2.65305 1.36367 3.82906 0.764462C4.56943 0.387227 5.36966 0.229962 6.28072 0.155525C7.16557 0.0832298 8.25826 0.0832398 9.613 0.0832523ZM7.08317 9.66659C7.08317 8.97623 7.64281 8.41659 8.33317 8.41659H21.6665C22.3569 8.41659 22.9165 8.97623 22.9165 9.66659C22.9165 10.3569 22.3569 10.9166 21.6665 10.9166H8.33317C7.64281 10.9166 7.08317 10.3569 7.08317 9.66659ZM7.08317 16.3333C7.08317 15.6429 7.64281 15.0833 8.33317 15.0833H15.8332C16.5235 15.0833 17.0832 15.6429 17.0832 16.3333C17.0832 17.0236 16.5235 17.5833 15.8332 17.5833H8.33317C7.64281 17.5833 7.08317 17.0236 7.08317 16.3333ZM7.08317 22.9999C7.08317 22.3096 7.64281 21.7499 8.33317 21.7499H14.1665C14.8569 21.7499 15.4165 22.3096 15.4165 22.9999C15.4165 23.6903 14.8569 24.2499 14.1665 24.2499H8.33317C7.64281 24.2499 7.08317 23.6903 7.08317 22.9999Z" fill="url(#paint0_linear_5151_239)"/>
<path d="M27.3749 20.8804C26.8917 20.8804 26.4999 21.2454 26.4999 21.6956V27.6739C26.4999 28.1241 26.1082 28.4891 25.6249 28.4891C25.1417 28.4891 24.7499 28.1241 24.7499 27.6739V21.6956C24.7499 20.3449 25.9252 19.25 27.3749 19.25C28.8247 19.25 29.9999 20.3449 29.9999 21.6956V27.6739C29.9999 29.925 28.0412 31.75 25.6249 31.75C23.2087 31.75 21.2499 29.925 21.2499 27.6739V23.3261C21.2499 22.8758 21.6417 22.5108 22.1249 22.5108C22.6082 22.5108 22.9999 22.8758 22.9999 23.3261V27.6739C22.9999 29.0246 24.1752 30.1195 25.6249 30.1195C27.0747 30.1195 28.2499 29.0246 28.2499 27.6739V21.6956C28.2499 21.2454 27.8582 20.8804 27.3749 20.8804Z" fill="url(#paint1_linear_5151_239)"/>
</g>
</g>
<defs>
<linearGradient id="paint0_linear_5151_239" x1="15.2082" y1="0.083252" x2="15.2082" y2="35.9166" gradientUnits="userSpaceOnUse">
<stop stop-color="#E119A0"/>
<stop offset="1" stop-color="#E119A0" stop-opacity="0.3"/>
</linearGradient>
<linearGradient id="paint1_linear_5151_239" x1="15.2082" y1="0.083252" x2="15.2082" y2="35.9166" gradientUnits="userSpaceOnUse">
<stop stop-color="#E119A0"/>
<stop offset="1" stop-color="#E119A0" stop-opacity="0.3"/>
</linearGradient>
</defs>
</svg>
