<svg width="40" height="40" viewBox="0 0 40 40" fill="none" xmlns="http://www.w3.org/2000/svg">
<g id="Profile">
<path id="Icon (Stroke)" fill-rule="evenodd" clip-rule="evenodd" d="M16.6669 6.25012C13.2151 6.25012 10.4169 9.04834 10.4169 12.5001C10.4169 15.9519 13.2151 18.7501 16.6669 18.7501C20.1187 18.7501 22.9169 15.9519 22.9169 12.5001C22.9169 9.04834 20.1187 6.25012 16.6669 6.25012ZM7.9169 12.5001C7.9169 7.66763 11.8344 3.75012 16.6669 3.75012C21.4994 3.75012 25.4169 7.66763 25.4169 12.5001C25.4169 17.3326 21.4994 21.2501 16.6669 21.2501C11.8344 21.2501 7.9169 17.3326 7.9169 12.5001ZM27.0836 15.0001C27.0836 14.3098 27.6432 13.7501 28.3336 13.7501H36.6669C37.3573 13.7501 37.9169 14.3098 37.9169 15.0001C37.9169 15.6905 37.3573 16.2501 36.6669 16.2501H28.3336C27.6432 16.2501 27.0836 15.6905 27.0836 15.0001ZM23.7502 22.5001C23.7502 21.8098 24.3099 21.2501 25.0002 21.2501H36.6669C37.3573 21.2501 37.9169 21.8098 37.9169 22.5001C37.9169 23.1905 37.3573 23.7501 36.6669 23.7501H25.0002C24.3099 23.7501 23.7502 23.1905 23.7502 22.5001ZM12.2619 24.5834C12.3403 24.5834 12.4197 24.5835 12.5002 24.5835H20.0002C20.6906 24.5835 21.2502 25.1431 21.2502 25.8335C21.2502 26.5238 20.6906 27.0835 20.0002 27.0835H12.5002C10.0834 27.0835 9.15202 27.097 8.42785 27.3167C6.69668 27.8418 5.34195 29.1966 4.81681 30.9277C4.59713 31.6519 4.58356 32.5832 4.58356 35.0001C4.58356 35.6905 4.02392 36.2501 3.33356 36.2501C2.64321 36.2501 2.08356 35.6905 2.08356 35.0001C2.08356 34.9196 2.08355 34.8402 2.08353 34.7618C2.08306 32.6649 2.08277 31.3284 2.42446 30.202C3.19198 27.6719 5.17197 25.6919 7.70214 24.9244C8.82852 24.5827 10.165 24.583 12.2619 24.5834ZM27.0836 30.0001C27.0836 29.3098 27.6432 28.7501 28.3336 28.7501H36.6669C37.3573 28.7501 37.9169 29.3098 37.9169 30.0001C37.9169 30.6905 37.3573 31.2501 36.6669 31.2501H28.3336C27.6432 31.2501 27.0836 30.6905 27.0836 30.0001Z" fill="url(#paint0_linear_5141_10)"/>
</g>
<defs>
<linearGradient id="paint0_linear_5141_10" x1="20.0002" y1="3.75012" x2="20.0002" y2="36.2501" gradientUnits="userSpaceOnUse">
<stop stop-color="#DD4D0F"/>
<stop offset="1" stop-color="#FC5912" stop-opacity="0.3"/>
</linearGradient>
</defs>
</svg>
