<svg width="16" height="16" viewBox="0 0 16 16" fill="none" xmlns="http://www.w3.org/2000/svg">
<g id="Register">
<path id="Icon (Stroke)" fill-rule="evenodd" clip-rule="evenodd" d="M6.66686 2.5C5.28615 2.5 4.16686 3.61929 4.16686 5C4.16686 6.38071 5.28615 7.5 6.66686 7.5C8.04757 7.5 9.16686 6.38071 9.16686 5C9.16686 3.61929 8.04757 2.5 6.66686 2.5ZM3.16686 5C3.16686 3.067 4.73386 1.5 6.66686 1.5C8.59985 1.5 10.1669 3.067 10.1669 5C10.1669 6.933 8.59985 8.5 6.66686 8.5C4.73386 8.5 3.16686 6.933 3.16686 5ZM12.1466 6.81311C12.8021 6.15761 13.8649 6.1576 14.5204 6.81309C15.176 7.4686 15.176 8.5314 14.5204 9.18692L10.2159 13.4914C10.2111 13.4962 10.2064 13.5009 10.2017 13.5057C10.1433 13.5642 10.0808 13.6268 10.008 13.6802C9.94438 13.7269 9.87616 13.7671 9.80441 13.8C9.72236 13.8377 9.63725 13.8619 9.55777 13.8845C9.55129 13.8864 9.54485 13.8882 9.53846 13.89L7.47088 14.4808C7.29629 14.5306 7.10837 14.482 6.97997 14.3536C6.85157 14.2252 6.80288 14.0372 6.85276 13.8626L7.4435 11.7951C7.44532 11.7887 7.44716 11.7822 7.449 11.7757C7.47161 11.6963 7.49583 11.6112 7.5335 11.5291C7.56644 11.4574 7.60658 11.3891 7.6533 11.3255C7.70673 11.2527 7.76937 11.1902 7.82787 11.1319C7.83264 11.1271 7.83738 11.1224 7.84208 11.1177L12.1466 6.81311ZM13.8133 7.52021C13.5483 7.25523 13.1187 7.25524 12.8538 7.52022L8.54919 11.8248C8.51078 11.8632 8.48962 11.8844 8.47398 11.901C8.46046 11.9154 8.45842 11.9186 8.4594 11.9173C8.45272 11.9264 8.44699 11.9361 8.44228 11.9464C8.44298 11.9449 8.44114 11.9482 8.43515 11.967C8.42823 11.9888 8.41994 12.0176 8.40502 12.0698L8.06153 13.272L9.26373 12.9285C9.31596 12.9136 9.34477 12.9053 9.36651 12.8984C9.3853 12.8924 9.38866 12.8905 9.38715 12.8912C9.3974 12.8865 9.40714 12.8808 9.41624 12.8741C9.4149 12.8751 9.41814 12.8731 9.4325 12.8595C9.44911 12.8439 9.47034 12.8227 9.50875 12.7843L13.8133 8.47981C14.0783 8.21482 14.0783 7.78519 13.8133 7.52021ZM4.90485 9.83332C4.9362 9.83333 4.96798 9.83333 5.00019 9.83333H6.00019C6.27633 9.83333 6.50019 10.0572 6.50019 10.3333C6.50019 10.6095 6.27633 10.8333 6.00019 10.8333H5.00019C4.03344 10.8333 3.6609 10.8388 3.37124 10.9266C2.67877 11.1367 2.13688 11.6786 1.92682 12.371C1.83895 12.6607 1.83352 13.0332 1.83352 14C1.83352 14.2761 1.60967 14.5 1.33352 14.5C1.05738 14.5 0.833524 14.2761 0.833524 14C0.833524 13.9678 0.833517 13.936 0.83351 13.9047C0.833324 13.0659 0.833205 12.5313 0.96988 12.0808C1.27689 11.0687 2.06888 10.2767 3.08095 9.96969C3.53151 9.83302 4.06611 9.83313 4.90485 9.83332Z" fill="white"/>
</g>
</svg>
