<svg width="40" height="40" viewBox="0 0 40 40" fill="none" xmlns="http://www.w3.org/2000/svg">
<g id="Upskill" clip-path="url(#clip0_5151_431)">
<g id="Vector">
<path d="M14.5477 12.2597L14.0669 16.93C14.0242 17.3457 14.2058 17.7525 14.5438 17.9981C14.8818 18.2437 15.3249 18.2907 15.707 18.1216L20.0002 16.2212L24.2934 18.1217C24.4452 18.1889 24.6068 18.222 24.7676 18.222C25.0112 18.222 25.2529 18.1461 25.4565 17.9982C25.7945 17.7526 25.9762 17.3457 25.9334 16.9301L25.4526 12.2598L28.5867 8.76395C28.8656 8.45286 28.9578 8.01684 28.8287 7.61958C28.6996 7.22223 28.3688 6.92372 27.9602 6.83598L23.37 5.84997L21.0138 1.78895C20.8041 1.42762 20.418 1.2052 20.0002 1.2052C19.5824 1.2052 19.1962 1.42762 18.9866 1.78895L16.6303 5.84997L12.0399 6.8359C11.6314 6.92364 11.3006 7.22215 11.1715 7.6195C11.0424 8.01684 11.1345 8.45286 11.4135 8.76387L14.5477 12.2597ZM17.6297 8.03247C17.9527 7.96309 18.2314 7.76059 18.3972 7.47481L20.0002 4.71215L21.6031 7.47489C21.7689 7.76067 22.0476 7.96317 22.3706 8.03254L25.4935 8.70332L23.3613 11.0815C23.1407 11.3275 23.0342 11.6552 23.0681 11.9838L23.3952 15.1611L20.4745 13.8682C20.3234 13.8013 20.1618 13.7679 20.0001 13.7679C19.8384 13.7679 19.6768 13.8013 19.5257 13.8682L16.605 15.1611L16.9321 11.9838C16.966 11.6551 16.8595 11.3275 16.6389 11.0815L14.5067 8.70332L17.6297 8.03247Z" fill="url(#paint0_linear_5151_431)"/>
<path d="M33.8596 12.9715C33.4086 12.5074 32.6666 12.4967 32.2025 12.9477C31.7384 13.3988 31.7277 14.1407 32.1788 14.6048L34.6432 17.1409C34.873 17.3773 35.1782 17.496 35.4838 17.496C35.7781 17.496 36.0727 17.3859 36.3003 17.1645C36.7645 16.7135 36.7751 15.9716 36.3241 15.5074L33.8596 12.9715Z" fill="url(#paint1_linear_5151_431)"/>
<path d="M38.8284 8.17867H35.3141C34.6669 8.17867 34.1423 8.70336 34.1423 9.35055C34.1423 9.99773 34.6669 10.5224 35.3141 10.5224H38.8284C39.4756 10.5224 40.0003 9.99773 40.0003 9.35055C40.0003 8.70336 39.4756 8.17867 38.8284 8.17867Z" fill="url(#paint2_linear_5151_431)"/>
<path d="M33.0191 6.08497C33.3246 6.08497 33.6299 5.96622 33.8596 5.72981L36.3241 3.1938C36.7751 2.72966 36.7646 1.9877 36.3004 1.53669C35.8362 1.08559 35.0943 1.09622 34.6432 1.56044L32.1788 4.09645C31.7278 4.56059 31.7383 5.30247 32.2025 5.75356C32.4302 5.97489 32.7247 6.08497 33.0191 6.08497Z" fill="url(#paint3_linear_5151_431)"/>
<path d="M6.14069 5.72973C6.37045 5.96613 6.67569 6.08488 6.98123 6.08488C7.27553 6.08488 7.57014 5.97473 7.7978 5.7534C8.26194 5.30238 8.27256 4.56043 7.82155 4.09629L5.35702 1.56035C4.90608 1.09629 4.16405 1.08559 3.69991 1.5366C3.23577 1.98762 3.22514 2.72957 3.67616 3.19371L6.14069 5.72973Z" fill="url(#paint4_linear_5151_431)"/>
<path d="M5.85805 9.35055C5.85805 8.70336 5.33336 8.17867 4.68617 8.17867H1.17188C0.524687 8.17867 0 8.70336 0 9.35055C0 9.99773 0.524687 10.5224 1.17188 10.5224H4.68617C5.33336 10.5224 5.85805 9.99773 5.85805 9.35055Z" fill="url(#paint5_linear_5151_431)"/>
<path d="M7.8215 14.6049C8.27251 14.1408 8.26197 13.3988 7.79775 12.9478C7.33361 12.4967 6.59165 12.5074 6.14064 12.9715L3.67618 15.5076C3.22517 15.9717 3.23572 16.7137 3.69993 17.1647C3.92767 17.386 4.2222 17.4962 4.5165 17.4962C4.82204 17.4962 5.12728 17.3773 5.35704 17.141L7.8215 14.6049Z" fill="url(#paint6_linear_5151_431)"/>
<path d="M34.1211 31.7439H30.5859V28.2088C30.5859 27.5616 30.0612 27.0369 29.4141 27.0369H25.8789V23.5018C25.8789 22.8546 25.3542 22.3299 24.707 22.3299H15.293C14.6458 22.3299 14.1211 22.8546 14.1211 23.5018V27.0369H10.5859C9.93875 27.0369 9.41406 27.5616 9.41406 28.2088V31.7439H5.87891C5.23172 31.7439 4.70703 32.2686 4.70703 32.9158V37.6228C4.70703 38.27 5.23172 38.7947 5.87891 38.7947H34.1211C34.7683 38.7947 35.293 38.27 35.293 37.6228V32.9158C35.293 32.2686 34.7683 31.7439 34.1211 31.7439ZM16.4648 24.6736H23.5352V27.0369H16.4648V24.6736ZM11.7578 29.3807H28.2422V31.7439H11.7578V29.3807ZM32.9492 36.451H7.05078V34.0877H32.9492V36.451Z" fill="url(#paint7_linear_5151_431)"/>
</g>
</g>
<defs>
<linearGradient id="paint0_linear_5151_431" x1="20.0001" y1="1.2052" x2="20.0001" y2="38.7947" gradientUnits="userSpaceOnUse">
<stop stop-color="#46AE99"/>
<stop offset="1" stop-color="#5FC1AE" stop-opacity="0.3"/>
</linearGradient>
<linearGradient id="paint1_linear_5151_431" x1="20.0001" y1="1.2052" x2="20.0001" y2="38.7947" gradientUnits="userSpaceOnUse">
<stop stop-color="#46AE99"/>
<stop offset="1" stop-color="#5FC1AE" stop-opacity="0.3"/>
</linearGradient>
<linearGradient id="paint2_linear_5151_431" x1="20.0001" y1="1.2052" x2="20.0001" y2="38.7947" gradientUnits="userSpaceOnUse">
<stop stop-color="#46AE99"/>
<stop offset="1" stop-color="#5FC1AE" stop-opacity="0.3"/>
</linearGradient>
<linearGradient id="paint3_linear_5151_431" x1="20.0001" y1="1.2052" x2="20.0001" y2="38.7947" gradientUnits="userSpaceOnUse">
<stop stop-color="#46AE99"/>
<stop offset="1" stop-color="#5FC1AE" stop-opacity="0.3"/>
</linearGradient>
<linearGradient id="paint4_linear_5151_431" x1="20.0001" y1="1.2052" x2="20.0001" y2="38.7947" gradientUnits="userSpaceOnUse">
<stop stop-color="#46AE99"/>
<stop offset="1" stop-color="#5FC1AE" stop-opacity="0.3"/>
</linearGradient>
<linearGradient id="paint5_linear_5151_431" x1="20.0001" y1="1.2052" x2="20.0001" y2="38.7947" gradientUnits="userSpaceOnUse">
<stop stop-color="#46AE99"/>
<stop offset="1" stop-color="#5FC1AE" stop-opacity="0.3"/>
</linearGradient>
<linearGradient id="paint6_linear_5151_431" x1="20.0001" y1="1.2052" x2="20.0001" y2="38.7947" gradientUnits="userSpaceOnUse">
<stop stop-color="#46AE99"/>
<stop offset="1" stop-color="#5FC1AE" stop-opacity="0.3"/>
</linearGradient>
<linearGradient id="paint7_linear_5151_431" x1="20.0001" y1="1.2052" x2="20.0001" y2="38.7947" gradientUnits="userSpaceOnUse">
<stop stop-color="#46AE99"/>
<stop offset="1" stop-color="#5FC1AE" stop-opacity="0.3"/>
</linearGradient>
<clipPath id="clip0_5151_431">
<rect width="40" height="40" fill="white"/>
</clipPath>
</defs>
</svg>
